<svg width="15" height="25" viewBox="0 0 15 25" fill="none" xmlns="http://www.w3.org/2000/svg">
<path d="M7 4.50684C3.13 4.50684 0 7.63684 0 11.5068C0 16.7568 7 24.5068 7 24.5068C7 24.5068 14 16.7568 14 11.5068C14 7.63684 10.87 4.50684 7 4.50684ZM7 14.0068C6.33696 14.0068 5.70107 13.7434 5.23223 13.2746C4.76339 12.8058 4.5 12.1699 4.5 11.5068C4.5 10.8438 4.76339 10.2079 5.23223 9.73907C5.70107 9.27023 6.33696 9.00684 7 9.00684C7.66304 9.00684 8.29893 9.27023 8.76777 9.73907C9.23661 10.2079 9.5 10.8438 9.5 11.5068C9.5 12.1699 9.23661 12.8058 8.76777 13.2746C8.29893 13.7434 7.66304 14.0068 7 14.0068Z" fill="white"/>
</svg>
