<svg width="16" height="15" viewBox="0 0 16 15" fill="none" xmlns="http://www.w3.org/2000/svg">
<path fill-rule="evenodd" clip-rule="evenodd" d="M2.26757 0.485142C2.43161 0.321343 2.62858 0.194278 2.84543 0.112366C3.06228 0.0304545 3.29406 -0.00443239 3.52541 0.0100172C3.75677 0.0244668 3.98241 0.087923 4.18738 0.196181C4.39236 0.304438 4.57199 0.455025 4.71437 0.637962L6.39713 2.79994C6.70556 3.19652 6.81431 3.7131 6.69244 4.20063L6.17964 6.25384C6.15313 6.36019 6.15456 6.47158 6.1838 6.57721C6.21304 6.68284 6.26909 6.77911 6.34651 6.85668L8.64987 9.16023C8.72753 9.23781 8.82396 9.29396 8.92976 9.32321C9.03556 9.35245 9.14713 9.3538 9.2536 9.32711L11.3057 8.81427C11.5463 8.75412 11.7974 8.74945 12.04 8.80061C12.2827 8.85177 12.5105 8.95743 12.7063 9.1096L14.8681 10.7916C15.6453 11.3963 15.7165 12.5448 15.0209 13.2395L14.0516 14.2089C13.3579 14.9027 12.321 15.2074 11.3545 14.8671C8.88066 13.9966 6.63457 12.5802 4.78281 10.7231C2.92595 8.87148 1.50973 6.62554 0.639187 4.15187C0.299823 3.1862 0.604501 2.14834 1.29823 1.45456L2.26757 0.485142Z" fill="white"/>
</svg>
