<svg width="50" height="26" viewBox="0 0 50 26" fill="none" xmlns="http://www.w3.org/2000/svg">
<rect width="50" height="26" rx="3" fill="#5856D6"/>
<path d="M10.7949 9.97461H12.3301C13.209 9.97461 13.7598 10.4785 13.7598 11.2812C13.7598 12.0957 13.2383 12.5762 12.3477 12.5762H10.7949V9.97461ZM10.7949 13.9355H12.2422L13.8184 17H15.8223L14.041 13.6602C15.0137 13.2734 15.5762 12.3359 15.5762 11.2578C15.5762 9.57617 14.4336 8.54492 12.5762 8.54492H9.02539V17H10.7949V13.9355ZM19.1445 8.54492H17.375V14.082C17.375 15.957 18.752 17.2168 20.9141 17.2168C23.082 17.2168 24.459 15.957 24.459 14.082V8.54492H22.6895V13.9004C22.6895 14.9668 22.0508 15.6465 20.9141 15.6465C19.7832 15.6465 19.1445 14.9668 19.1445 13.9004V8.54492ZM26.1406 14.6504C26.2051 16.2266 27.5117 17.2168 29.5273 17.2168C31.6484 17.2168 32.9551 16.1738 32.9551 14.4688C32.9551 13.1562 32.2227 12.4238 30.5234 12.0664L29.5039 11.8496C28.5137 11.6387 28.1094 11.3398 28.1094 10.8184C28.1094 10.1738 28.6953 9.76367 29.5801 9.76367C30.4355 9.76367 31.0566 10.209 31.1387 10.877H32.8027C32.75 9.37109 31.4316 8.32812 29.5684 8.32812C27.6172 8.32812 26.334 9.37695 26.334 10.9707C26.334 12.2598 27.0898 13.0625 28.6309 13.3848L29.7324 13.6191C30.7695 13.8418 31.1914 14.1523 31.1914 14.6914C31.1914 15.3301 30.541 15.7754 29.6211 15.7754C28.625 15.7754 27.9336 15.3359 27.8516 14.6504H26.1406ZM38.4512 17V10.0566H40.9883V8.54492H34.1445V10.0566H36.6816V17H38.4512Z" fill="white"/>
</svg>
