<svg width="323" height="91" viewBox="0 0 323 91" fill="none" xmlns="http://www.w3.org/2000/svg">
<g clip-path="url(#clip0_35638_155412)">
<path fill-rule="evenodd" clip-rule="evenodd" d="M27.6177 23.5375C26.2792 15.6435 19.0447 10.3594 11.4895 11.7572C5.9136 12.7892 1.70417 17.1787 0.416438 22.5808C0.414066 22.5917 0.411695 22.6031 0.408374 22.614C0.361893 22.8125 0.318731 23.012 0.280313 23.2129L0.266084 23.2835C0.229562 23.4787 0.196361 23.6749 0.167903 23.8725C0.163634 23.8971 0.159366 23.9213 0.156046 23.9459C0.124221 24.1667 0.0973372 24.3882 0.0754141 24.6102L0.0706711 24.6567C0.0512247 24.8571 0.0365213 25.0585 0.0265609 25.2594C0.0141305 25.483 0.00701395 25.7069 0.00521733 25.9308C0.00426872 25.9943 0 26.0568 0 26.1203C0 26.1753 0.00332012 26.2293 0.00474302 26.2838C0.00521733 26.3691 0.00806314 26.4544 0.0104347 26.5397C0.0317783 27.2239 0.0977063 27.9147 0.214859 28.6089C0.97896 33.1131 5.09259 36.1176 9.40447 35.3202C10.9607 35.0316 12.3309 34.2872 13.4095 33.2415C13.847 32.8184 14.4005 32.5349 14.9997 32.4269C15.5989 32.3189 16.2168 32.3913 16.7747 32.635C18.1641 33.2407 19.7035 33.4159 21.1937 33.1377C25.3325 32.372 28.1461 28.3805 27.6898 24.0772C27.6712 23.8964 27.6471 23.7168 27.6177 23.5375ZM60.9498 13.634C45.6891 13.634 36.2087 19.0195 36.2087 27.6873C36.2087 37.7926 45.9205 51.5872 60.9498 51.5872C75.748 51.5872 85.6908 37.6377 85.6908 27.6873C85.6908 18.8878 76.4419 13.634 60.9498 13.634ZM121.88 25.4527C121.877 25.3859 121.873 25.3191 121.87 25.2527C121.859 25.0537 121.845 24.8552 121.826 24.6567L121.821 24.6102C121.799 24.3875 121.772 24.1658 121.741 23.9459L121.729 23.8725C121.667 23.4499 121.586 23.0301 121.488 22.6145L121.48 22.5808C120.192 17.1787 115.983 12.7887 110.407 11.7572C102.852 10.3594 95.617 15.6435 94.2785 23.5375C94.2489 23.7166 94.2248 23.8966 94.2064 24.0772C93.7497 28.381 96.5637 32.372 100.702 33.1377C102.25 33.4244 103.771 33.2211 105.122 32.6345C105.68 32.391 106.298 32.3187 106.897 32.4267C107.496 32.5347 108.049 32.8181 108.487 33.241C109.566 34.2872 110.936 35.0321 112.492 35.3202C116.804 36.1176 120.918 33.1131 121.681 28.6089C121.799 27.9147 121.864 27.2239 121.886 26.5397C121.889 26.4544 121.891 26.3691 121.892 26.2838C121.892 26.2293 121.896 26.1748 121.896 26.1203C121.896 26.0568 121.892 25.9943 121.891 25.9308C121.89 25.7711 121.887 25.6114 121.88 25.4522M82.8872 59.5579C78.8808 57.7564 73.4941 60.8325 68.9437 61.5779C66.2639 62.0365 63.6097 62.2744 60.9498 62.3014C58.27 62.2728 55.5967 62.0308 52.9554 61.5779C48.4045 60.8325 43.0188 57.7579 39.0114 59.5579C36.9799 60.4786 36.3539 62.7236 37.1792 65.4045C37.7469 67.2363 38.8425 68.9279 40.2351 70.2897C43.1283 73.1346 46.8288 75.2872 50.2362 76.6489C53.7048 78.0453 57.3242 78.7906 60.9498 78.8167C64.5758 78.7911 68.1943 78.0463 71.6633 76.6489C75.0702 75.2891 78.7712 73.1327 81.6649 70.2892C83.0561 68.927 84.1531 67.2354 84.7204 65.404C85.5457 62.726 84.9196 60.4762 82.8877 59.5579M306.334 29.6807C300.326 29.6807 295.682 31.8631 292.311 36.8663V32.5237C292.31 32.0349 292.116 31.5662 291.77 31.2206C291.424 30.875 290.955 30.6807 290.466 30.6805H278.496C278.254 30.6804 278.014 30.728 277.79 30.8206C277.566 30.9132 277.362 31.049 277.191 31.2201C277.02 31.3913 276.884 31.5945 276.791 31.8181C276.698 32.0418 276.65 32.2815 276.65 32.5237V75.9586C276.65 76.4476 276.845 76.9165 277.191 77.2623C277.537 77.608 278.007 77.8022 278.496 77.8022H290.465C290.955 77.8021 291.424 77.6079 291.77 77.2623C292.116 76.9166 292.31 76.4479 292.311 75.959V52.3316C292.311 46.964 294.223 42.2329 299.87 42.2329C305.605 42.2329 307.337 47.7828 307.337 52.3316V75.9581C307.337 76.2002 307.384 76.44 307.477 76.6637C307.57 76.8874 307.706 77.0907 307.877 77.2619C308.048 77.4331 308.252 77.5689 308.476 77.6616C308.7 77.7542 308.94 77.8018 309.182 77.8018H321.154C321.644 77.8016 322.113 77.6074 322.459 77.2618C322.805 76.9162 323 76.4474 323 75.9586V51.4209C323 41.1416 320.086 29.6807 306.334 29.6807ZM213.628 66.4398L211.156 66.4341C209.193 66.3664 208.329 64.8767 208.329 62.8634V61.9484H208.335V14.7982C208.335 14.5561 208.287 14.3163 208.194 14.0927C208.102 13.869 207.966 13.6658 207.794 13.4947C207.623 13.3235 207.419 13.1878 207.195 13.0952C206.971 13.0026 206.731 12.9549 206.489 12.955H194.837C194.594 12.9549 194.354 13.0026 194.131 13.0952C193.907 13.1878 193.703 13.3235 193.532 13.4947C193.36 13.6658 193.224 13.869 193.132 14.0927C193.039 14.3163 192.991 14.5561 192.991 14.7982V62.0579C192.991 75.5876 201.691 78.7238 209.853 78.7238C210.975 78.7238 212.054 78.6504 213.774 78.5078C214.236 78.4694 214.666 78.2593 214.98 77.919C215.294 77.5787 215.469 77.133 215.469 76.6703V68.284C215.469 67.7958 215.276 67.3275 214.93 66.982C214.585 66.6364 214.117 66.4418 213.628 66.4408M243.436 66.5223C236.79 66.5223 232.69 61.0647 232.69 54.1506C232.69 47.5094 236.606 42.0514 243.255 42.0514C249.901 42.0514 254.362 47.055 254.362 54.6045C254.362 62.064 249.628 66.5223 243.436 66.5223ZM267.815 30.68H255.843C255.601 30.68 255.361 30.7277 255.137 30.8203C254.913 30.913 254.71 31.0488 254.539 31.22C254.367 31.3912 254.231 31.5945 254.139 31.8181C254.046 32.0418 253.998 32.2816 253.998 32.5237V36.9587C251.084 32.5919 245.805 29.6807 239.613 29.6807C225.773 29.6807 216.938 40.5058 216.938 54.1501C216.938 68.0684 226.134 78.8034 239.705 78.8034C246.35 78.8034 250.995 75.9823 253.998 71.3435V75.9586C253.998 76.2007 254.046 76.4405 254.138 76.6642C254.231 76.8879 254.367 77.0912 254.538 77.2624C254.71 77.4336 254.913 77.5694 255.137 77.662C255.361 77.7547 255.601 77.8023 255.843 77.8022H267.816C268.305 77.8021 268.774 77.6079 269.121 77.2623C269.467 76.9166 269.661 76.4479 269.661 75.959V32.5237C269.661 32.0348 269.467 31.566 269.121 31.2203C268.775 30.8747 268.306 30.6805 267.816 30.6805M159.777 66.5223C153.131 66.5223 149.032 61.0647 149.032 54.1506C149.032 47.5094 152.947 42.0514 159.596 42.0514C166.242 42.0514 170.703 47.055 170.703 54.6045C170.703 62.064 165.97 66.5223 159.777 66.5223ZM184.156 30.68H172.184C171.942 30.68 171.702 30.7277 171.478 30.8203C171.254 30.913 171.051 31.0488 170.879 31.22C170.708 31.3912 170.572 31.5945 170.479 31.8181C170.387 32.0418 170.339 32.2816 170.339 32.5237V36.9587C167.425 32.5919 162.146 29.6807 155.954 29.6807C142.112 29.6807 133.279 40.5058 133.279 54.1501C133.279 68.0684 142.474 78.8034 156.045 78.8034C162.69 78.8034 167.335 75.9823 170.338 71.3435V75.9586C170.338 76.4475 170.533 76.9164 170.879 77.2621C171.225 77.6078 171.694 77.8021 172.184 77.8022H184.156C184.645 77.8021 185.115 77.6079 185.461 77.2623C185.807 76.9166 186.001 76.4479 186.002 75.959V32.5237C186.002 32.0348 185.807 31.566 185.461 31.2203C185.115 30.8747 184.646 30.68 184.156 30.68Z" fill="#232343"/>
</g>
<defs>
<clipPath id="clip0_35638_155412">
<rect width="323" height="90.3496" fill="white"/>
</clipPath>
</defs>
</svg>
