<svg width="162" height="64" viewBox="0 0 162 64" fill="none" xmlns="http://www.w3.org/2000/svg">
<g clip-path="url(#clip0_34155_490228)">
<path fill-rule="evenodd" clip-rule="evenodd" d="M60.3514 24.2093C62.0124 22.8721 64.1314 22.1163 66.3651 22.1163C71.8062 22.1163 76.2735 26.4768 76.2735 32C76.2735 37.5233 71.8634 41.9419 66.4797 41.9419C64.1888 41.9419 62.1269 41.1279 60.466 39.8489V48.6279C60.466 49.6744 59.6069 50.5465 58.5759 50.5465H58.5186C57.4877 50.5465 56.6287 49.6744 56.6287 48.6279V32.5814V32.0581V31.5349V24.0349C56.6287 22.9981 57.4719 22.1325 58.49 22.1165C59.5081 22.1325 60.3514 22.9981 60.3514 24.0349V24.2093ZM58.49 22.1165C58.4996 22.1164 58.5091 22.1163 58.5186 22.1163H58.4614C58.4709 22.1163 58.4805 22.1164 58.49 22.1165ZM60.4086 32.0581C60.4086 35.3721 63.0433 38.1046 66.3651 38.1046C69.687 38.1046 72.3216 35.3721 72.3216 32.0581C72.3216 28.7441 69.6297 26.0116 66.3651 26.0116C63.1005 26.0116 60.4086 28.7441 60.4086 32.0581Z" fill="#232343"/>
<path fill-rule="evenodd" clip-rule="evenodd" d="M93.5129 24.0349C93.5129 22.9884 94.372 22.1163 95.4029 22.1163C96.4338 22.1163 97.2928 22.9884 97.2928 24.0349V32.0581V40.0814C97.2928 41.1279 96.4338 42 95.4029 42C94.372 42 93.5129 41.1279 93.5129 40.0814V39.907C91.8519 41.2441 89.7901 42 87.4991 42C82.0581 42 77.7053 37.5814 77.7053 32.0581C77.7053 26.5349 82.1153 22.1163 87.4991 22.1163C89.7901 22.1163 91.8519 22.8721 93.5129 24.2093V24.0349ZM81.5426 32.0581C81.5426 35.3721 84.1773 38.1046 87.4991 38.1046C90.821 38.1046 93.4555 35.3721 93.4555 32.0581C93.4555 28.7441 90.7637 26.0116 87.4991 26.0116C84.2345 26.0116 81.5426 28.7441 81.5426 32.0581Z" fill="#232343"/>
<path d="M124.784 23.686C124.784 22.6395 123.925 21.7674 122.894 21.7674H118.771V14.965C118.771 13.9185 117.911 13.0464 116.88 13.0464C115.85 13.0464 114.99 13.9185 114.99 14.965V23.6279V40.0232C114.99 41.0697 115.85 41.9417 116.88 41.9417C117.911 41.9417 118.771 41.0697 118.771 40.0232V25.6046H122.894C123.925 25.6046 124.784 24.7325 124.784 23.686Z" fill="#232343"/>
<path d="M110.981 22.1163C108.519 22.1163 106.571 23.2209 105.082 24.5581V24.0349C105.082 22.9884 104.223 22.1163 103.192 22.1163C102.161 22.1163 101.302 22.9884 101.302 24.0349V30.8373V31.3024V40.0814C101.302 41.1279 102.161 42 103.192 42C104.223 42 105.082 41.1279 105.082 40.0814V31.4186C105.483 30.3721 107.43 25.9535 110.981 25.9535C112.012 25.9535 112.871 25.0814 112.871 24.0349C112.871 22.9884 112.012 22.1163 110.981 22.1163Z" fill="#232343"/>
<path fill-rule="evenodd" clip-rule="evenodd" d="M150.156 22.1163C146.721 22.1163 143.684 23.9186 141.91 26.7093C140.191 23.9768 137.155 22.1163 133.662 22.1163C128.279 22.1163 123.868 26.5349 123.868 32.0581C123.868 37.5814 128.22 42 133.662 42C137.099 42 140.134 40.1976 141.91 37.407C143.627 40.1395 146.662 42 150.156 42C155.541 42 159.95 37.5814 159.95 32.0581C159.95 26.5349 155.597 22.1163 150.156 22.1163ZM133.719 38.1046C130.397 38.1046 127.762 35.3721 127.762 32.0581C127.762 28.7441 130.455 26.0116 133.719 26.0116C136.984 26.0116 139.675 28.7441 139.675 32.0581C139.675 35.3721 137.04 38.1046 133.719 38.1046ZM144.2 32.0581C144.2 35.3721 146.834 38.1046 150.156 38.1046C153.478 38.1046 156.113 35.3721 156.113 32.0581C156.113 28.7441 153.421 26.0116 150.156 26.0116C146.892 26.0116 144.2 28.7441 144.2 32.0581Z" fill="#232343"/>
<path d="M133.719 29.0349C133.375 29.0349 133.09 29.093 132.745 29.2094C132.86 29.4419 132.975 29.6745 132.975 29.9651C132.975 30.721 132.401 31.3024 131.657 31.3024C131.371 31.3024 131.142 31.2442 130.912 31.0697C130.798 31.3605 130.74 31.7094 130.74 32.0581C130.74 33.6861 132.058 35.0232 133.662 35.0232C135.266 35.0232 136.583 33.6861 136.583 32.0581C136.64 30.3721 135.323 29.0349 133.719 29.0349Z" fill="#232343"/>
<path d="M150.156 29.0349C149.813 29.0349 149.526 29.093 149.182 29.2094C149.297 29.4419 149.412 29.6745 149.412 29.9651C149.412 30.721 148.839 31.3024 148.095 31.3024C147.808 31.3024 147.579 31.2442 147.35 31.0697C147.236 31.3605 147.178 31.7094 147.178 32.0581C147.178 33.6861 148.495 35.0232 150.099 35.0232C151.703 35.0232 153.021 33.6861 153.021 32.0581C153.134 30.3721 151.817 29.0349 150.156 29.0349Z" fill="#232343"/>
<path d="M18.7133 43.6279C28.6773 43.6279 36.7546 35.4285 36.7546 25.314C36.7546 15.1994 28.6773 7 18.7133 7C8.74948 7 0.67215 15.1994 0.67215 25.314C0.67215 35.4285 8.74948 43.6279 18.7133 43.6279Z" fill="#232343"/>
<path d="M18.7133 56.8839C28.6773 56.8839 36.7546 48.6844 36.7546 38.5699C36.7546 28.4554 28.6773 20.2559 18.7133 20.2559C8.74948 20.2559 0.67215 28.4554 0.67215 38.5699C0.67215 48.6844 8.74948 56.8839 18.7133 56.8839Z" fill="#232343"/>
<path d="M30.0535 50.2557C40.0174 50.2557 48.0947 42.0562 48.0947 31.9417C48.0947 21.8272 40.0174 13.6278 30.0535 13.6278C20.0896 13.6278 12.0123 21.8272 12.0123 31.9417C12.0123 42.0562 20.0896 50.2557 30.0535 50.2557Z" fill="#232343"/>
<path d="M15.9642 43.3955C13.5015 40.2559 12.0124 36.3024 12.0124 31.942C12.0124 27.5815 13.5015 23.628 15.9642 20.4885C9.54962 21.4769 4.22316 25.9537 1.87494 31.942C4.22316 37.9304 9.54962 42.4072 15.9642 43.3955Z" fill="#232343"/>
<path d="M15.9642 20.4884C16.8807 20.3721 17.7397 20.2559 18.7134 20.2559C26.3309 20.2559 32.9172 25.0815 35.4947 31.8838C36.2965 29.8489 36.6973 27.5815 36.6973 25.2559C36.6973 20.9535 35.2082 16.9419 32.7455 13.8024C31.8291 13.6861 30.97 13.5698 29.9964 13.5698C24.3262 13.628 19.2862 16.3024 15.9642 20.4884Z" fill="#232343"/>
<path d="M35.4947 31.942C32.86 38.7444 26.3309 43.5699 18.7134 43.5699C17.7971 43.5699 16.8807 43.5118 15.9642 43.3374C19.2862 47.5234 24.3262 50.1979 30.0536 50.1979C30.97 50.1979 31.8863 50.1398 32.8028 49.9653C35.2655 46.8258 36.7547 42.8723 36.7547 38.5118C36.7547 36.2444 36.2965 33.9769 35.4947 31.942Z" fill="#232343"/>
<path d="M18.7133 20.3139C17.7969 20.3139 16.8806 20.372 15.9642 20.5465C13.5014 23.686 12.0123 27.6395 12.0123 32C12.0123 36.3604 13.5014 40.3139 15.9642 43.4535C16.8806 43.5698 17.7397 43.686 18.7133 43.686C26.3307 43.686 32.9172 38.8604 35.4945 32.0582C32.8599 25.1395 26.3307 20.3139 18.7133 20.3139Z" fill="#232343"/>
<path fill-rule="evenodd" clip-rule="evenodd" d="M12.0123 31.9419C12.0123 26.0697 16.7088 21.3024 22.4934 21.3024C28.278 21.3024 32.9744 26.0697 32.9744 31.9419C32.9744 37.814 28.278 42.5814 22.4934 42.5814C16.7088 42.5814 12.0123 37.814 12.0123 31.9419ZM16.9951 31.9419C16.9951 35.0232 19.4579 37.5232 22.4934 37.5232C25.5289 37.5232 27.9344 35.0232 27.9344 32C27.9344 28.9186 25.4716 26.4186 22.4361 26.4186C21.8062 26.4186 21.2334 26.5349 20.6607 26.7094C20.8897 27.0581 21.0616 27.5232 21.0616 28.0465C21.0616 29.4419 19.9733 30.5465 18.5987 30.5465C18.1406 30.5465 17.6824 30.3721 17.2815 30.1396C17.1097 30.721 16.9951 31.3024 16.9951 31.9419Z" fill="white"/>
</g>
<defs>
<clipPath id="clip0_34155_490228">
<rect width="160.656" height="50" fill="white" transform="translate(0.67215 7)"/>
</clipPath>
</defs>
</svg>
