<svg width="294" height="82" viewBox="0 0 294 82" fill="none" xmlns="http://www.w3.org/2000/svg">
<path fill-rule="evenodd" clip-rule="evenodd" d="M185.4 41C185.4 34.8 189.6 31 194.8 31C207.4 31 207.4 51 194.8 51C189.6 51 185.4 47.2 185.4 41ZM204.2 51.2L204.6 56H210.4V26H204.4L204.2 30.8C202.4 27.4 198.4 25.4 194.2 25.4C185.8 25.4 179 31 179 41C179 51.2 185.4 56.8 194 56.8C197.8 56.8 202.4 55 204.2 51.2ZM230.4 31.2C232.8 31.2 235.2 32 237 33.8L241 29.6C237.8 26.4 234.4 25.2 230.4 25.2C222 25.2 215 30.6 215 41C215 51.4 222 56.8 230.4 56.8C234.6 56.8 238.2 55.4 241.4 52.2L237.2 48C235.4 50 232.8 50.8 230.2 50.8C225.2 50.8 220.8 47.4 220.8 41.2C221 35 225.2 31.2 230.4 31.2ZM127 51.4C123.6 51.4 119.4 50 116.8 47L113.6 51.4C117.4 55.8 122.2 57 127 57C134.6 57 139.4 53.2 139.4 47.6C139.4 39.8 132.4 38.6 127 38.2C123.2 37.8 120.8 36.8 120.6 34.4C120.6 32 123 30.8 126.8 30.8C129.8 30.8 132.2 31.4 134.6 33.6L138 29.4C134.8 26.4 131.2 25.4 126.8 25.4C121.4 25.4 114.6 27.8 114.6 34.6C114.6 41.2 121 43 126.6 43.6C131 44 133.4 45 133.4 47.8C133.2 50.2 130 51.4 127 51.4ZM159.8 31.4C165.4 31.4 169 35.4 169 41C169 46.6 165 50.6 159.8 50.6C154.4 50.6 150.6 46.4 150.6 41C150.6 35.6 154 31.4 159.8 31.4ZM100.2 1C98.2 1 96.8 2.6 96.8 4.4V23L83.4 38.2V13.4H77.2V56H83.4V42.2L96.8 57V77.6C96.8 79.6 98.4 81 100.2 81H150V51.6C152.2 55.4 156.8 56.6 160.4 56.6C169.4 56.6 175.2 50 175.2 41C175.2 32 169.2 25.4 160.4 25.4C156.4 25.4 152.4 27.2 150 30.8L149.6 26H143.8V74.6H104C103.4 74.6 102.8 74.2 102.8 73.4V54.4L89.6 40L102.8 25.4V8.4C102.8 7.8 103.4 7.2 104 7.2H285.6C286.2 7.2 286.8 7.8 286.8 8.4V73.4C286.8 74 286.2 74.6 285.6 74.6H156V81H289.4C291.4 81 292.8 79.4 292.8 77.6V4.4C292.8 2.6 291.2 1 289.4 1H100.2ZM249.8 38C250.8 33.2 254.4 30.8 258.8 30.8C263.8 30.8 267 33.2 267.4 38H249.8ZM258.8 25.2C249.6 25.2 243.4 31.8 243.4 40.8C243.4 50.4 249.6 56.6 259.2 56.6C263.8 56.6 268.8 54.8 271.8 51.4L267.8 47.4C266 49.4 262.2 50.6 259.4 50.6C254 50.6 250.4 47.6 249.8 43H273.6C274.6 31.2 268.2 25.2 258.8 25.2ZM41 51C35.8 51 31.6 47.2 31.6 41C31.6 34.8 35.8 31 41 31C53.6 31 53.6 51 41 51ZM50.4 30.8C48.6 27.4 44.6 25.4 40.4 25.4C32 25.4 25.2 31 25.2 41C25.2 51.2 31.6 56.8 40.2 56.8C43.8 56.8 48.4 55 50.2 51.2L50.6 56H56.4V26H50.4V30.8ZM17 50.8C14.2 50.8 12.8 49 12.8 45.8V31.4H21.4V26H12.8V13.4H6.6V26H1V31.4H6.6V45.8C6.6 52.8 10.2 56.6 16.6 56.4C18.6 56.4 20.4 56 22.4 55L20.6 49.6C19.6 50.2 18.2 50.8 17 50.8ZM63.8 56H70V13.4H63.8V56Z" fill="#232343" stroke="#00585F" stroke-width="0.5"/>
</svg>
